<svg width="28" height="15" viewBox="0 0 28 15" fill="none" xmlns="http://www.w3.org/2000/svg">
<rect width="28" height="15" rx="7.5" fill="#558EFF"/>
<path d="M6.93457 7.12207L7.35889 3.17969H11.5591V4.30762H8.44385L8.229 6.17676C8.59066 5.96908 8.99886 5.86523 9.45361 5.86523C10.1984 5.86523 10.7767 6.10335 11.1885 6.57959C11.6038 7.05583 11.8115 7.69678 11.8115 8.50244C11.8115 9.29736 11.5824 9.93115 11.124 10.4038C10.6657 10.8729 10.0373 11.1074 9.23877 11.1074C8.52262 11.1074 7.92822 10.9051 7.45557 10.5005C6.98649 10.0923 6.73226 9.55518 6.69287 8.88916H7.95508C8.00521 9.26872 8.14128 9.56055 8.36328 9.76465C8.58529 9.96517 8.87533 10.0654 9.2334 10.0654C9.63444 10.0654 9.94596 9.9222 10.168 9.63574C10.3936 9.34928 10.5063 8.95898 10.5063 8.46484C10.5063 7.98861 10.3828 7.61263 10.1357 7.33691C9.88867 7.05762 9.5485 6.91797 9.11523 6.91797C8.87891 6.91797 8.67839 6.9502 8.51367 7.01465C8.34896 7.07552 8.16992 7.19727 7.97656 7.37988L6.93457 7.12207Z" fill="white"/>
<path d="M18 2L19.1226 5.45492H22.7553L19.8164 7.59017L20.9389 11.0451L18 8.90983L15.0611 11.0451L16.1836 7.59017L13.2447 5.45492H16.8774L18 2Z" fill="white"/>
</svg>
