<svg width="17" height="16" viewBox="0 0 17 16" fill="none" xmlns="http://www.w3.org/2000/svg">
<path d="M4.83333 7.16671V13.8334C4.83333 14.0544 4.74554 14.2664 4.58925 14.4226C4.43297 14.5789 4.22101 14.6667 4 14.6667H2.33333C2.11232 14.6667 1.90036 14.5789 1.74408 14.4226C1.5878 14.2664 1.5 14.0544 1.5 13.8334V8.00004C1.5 7.77903 1.5878 7.56707 1.74408 7.41079C1.90036 7.25451 2.11232 7.16671 2.33333 7.16671H4.83333ZM4.83333 7.16671C5.71739 7.16671 6.56523 6.81552 7.19036 6.1904C7.81548 5.56528 8.16667 4.71743 8.16667 3.83337V3.00004C8.16667 2.55801 8.34226 2.13409 8.65482 1.82153C8.96738 1.50897 9.3913 1.33337 9.83333 1.33337C10.2754 1.33337 10.6993 1.50897 11.0118 1.82153C11.3244 2.13409 11.5 2.55801 11.5 3.00004V7.16671H14C14.442 7.16671 14.8659 7.3423 15.1785 7.65486C15.4911 7.96742 15.6667 8.39135 15.6667 8.83337L14.8333 13C14.7135 13.5113 14.4861 13.9502 14.1855 14.2508C13.8849 14.5514 13.5274 14.6974 13.1667 14.6667H7.33333C6.67029 14.6667 6.03441 14.4033 5.56557 13.9345C5.09672 13.4656 4.83333 12.8297 4.83333 12.1667" stroke="#2C3E50" stroke-width="1.16667" stroke-linecap="round" stroke-linejoin="round"/>
</svg>
