<svg width="141" height="10" viewBox="0 0 141 10" fill="none" xmlns="http://www.w3.org/2000/svg">
<path d="M0.876867 4.03933C1.20366 4.18549 1.85455 4.07289 2.29877 4.12524C2.43779 4.17604 2.70094 4.18114 2.95293 4.19035C3.12733 4.13931 3.36913 4.10601 3.70974 4.09884C3.73335 4.12264 3.89016 4.1327 4.03728 4.14367C4.19004 4.14785 4.33649 4.14586 4.48127 4.14175C4.57602 4.13974 4.67069 4.13808 4.76464 4.13552C4.95947 4.1331 5.155 4.14001 5.34988 4.14842C5.75458 4.16602 6.15758 4.18986 6.53643 4.20246C6.36013 4.19946 6.17491 4.19397 5.9859 4.18389C5.58291 4.16239 5.23118 4.18209 5.14955 4.2619C5.15738 4.2728 5.17816 4.28283 5.20871 4.29218C5.11486 4.29143 5.01924 4.28973 4.93329 4.2929C4.89319 4.29438 4.88241 4.31057 4.85832 4.32005C4.91794 4.32274 5 4.33077 5.03276 4.32706C5.10518 4.31887 5.16125 4.30679 5.22062 4.29551C5.24235 4.30152 5.26719 4.30733 5.29817 4.31271C5.69088 4.37158 6.04542 4.30908 6.45237 4.32226C6.18946 4.31902 5.96665 4.32713 5.90953 4.36358C5.81797 4.42205 6.1494 4.41583 6.33478 4.43584C6.51211 4.455 6.78417 4.44548 6.89998 4.48397C6.85153 4.48189 6.803 4.47978 6.75462 4.4777C6.69198 4.47472 6.62934 4.47179 6.5664 4.4689L6.56647 4.46892C6.4806 4.46459 6.39473 4.46026 6.30886 4.45591C6.48618 4.55685 6.62789 4.5691 7.21157 4.53403C7.53042 4.54389 7.72875 4.58044 7.93455 4.62726C7.50095 4.64048 7.16839 4.68591 6.73056 4.63974C6.71263 4.63784 6.64846 4.64284 6.64441 4.64675C6.63328 4.65729 6.61675 4.67163 6.64847 4.6798C7.05827 4.78555 7.59658 4.85022 8.30567 4.85637C8.41644 4.85732 8.4463 4.84963 8.3974 4.83728C8.17521 4.78992 7.76757 4.81921 7.50002 4.75545C7.83424 4.76447 8.09778 4.77164 8.36132 4.77867C8.75347 4.78913 8.54468 4.71133 8.73825 4.69344C8.78652 4.69905 8.83449 4.7046 8.87868 4.71014C8.96697 4.71969 9.05808 4.72819 9.15195 4.73551C9.4869 4.82468 9.89536 4.89762 10.5379 4.92811C10.7878 4.93998 11.028 4.9733 11.1802 5.01754C11.3002 5.05216 11.4381 5.05531 11.5899 5.03447C11.8666 5.00566 12.1564 5.02686 12.453 5.04714C12.9261 5.07946 13.1642 5.08518 13.6956 5.07309C13.7669 5.07781 13.8375 5.08291 13.9066 5.08887C14.0152 5.09266 14.1233 5.09398 14.229 5.09215C14.289 5.09014 14.3453 5.08748 14.3996 5.08445C14.8379 5.11145 15.2735 5.1266 15.6994 5.0964C15.7276 5.09439 15.7703 5.09724 15.8064 5.09785C15.8534 5.10512 15.9055 5.11071 15.963 5.11457C15.963 5.11458 15.9629 5.11458 15.9628 5.11458C16.0869 5.16142 16.2568 5.2026 16.5731 5.19733C16.9541 5.19098 17.3301 5.20786 17.7072 5.22243C18.0283 5.23483 18.3154 5.23519 18.5206 5.19248C18.676 5.1601 18.8886 5.16127 19.1292 5.1715C20.0328 5.20989 20.9373 5.24674 21.841 5.28482C21.9752 5.29047 22.1088 5.29698 22.2288 5.30886C22.2217 5.31521 22.2156 5.32172 22.2103 5.32829C22.2756 5.34459 22.341 5.36089 22.4065 5.37718C22.5598 5.3697 22.7131 5.36219 22.8667 5.35475C22.8697 5.35026 22.8715 5.34585 22.8727 5.34147C22.9905 5.33483 23.1076 5.32823 23.2276 5.32146C23.068 5.28334 22.7636 5.26954 22.7098 5.21714C22.7083 5.21563 22.7083 5.21448 22.7071 5.21306C22.8348 5.22226 22.9632 5.23098 23.0924 5.23915C23.7532 5.35326 24.6163 5.40775 25.4382 5.47434C25.4291 5.48436 25.42 5.49436 25.411 5.50437C25.5527 5.5109 25.6943 5.5174 25.836 5.52393C25.9544 5.56319 26.3188 5.54674 26.375 5.60013C26.3699 5.62393 26.3557 5.64795 26.4711 5.66976L26.4635 5.66734C26.5225 5.68486 26.5946 5.68944 26.6819 5.6791C26.751 5.68011 26.8192 5.68284 26.8863 5.68731C26.9252 5.67834 27.0248 5.67832 27.1408 5.68069C27.1901 5.69087 27.2385 5.70133 27.2847 5.71243C27.3062 5.71758 27.3168 5.72396 27.3325 5.72975C26.655 5.80078 25.7952 5.84308 24.9738 5.84178C24.6016 5.8412 24.1973 5.82362 24.0077 5.89392C24.0077 5.89392 24.0119 5.89517 24.0118 5.89513C24.0165 5.94967 23.5891 5.96195 23.6657 6.02732C24.3063 6.06091 24.9392 6.0861 25.596 6.09773C26.3551 6.11117 27.121 6.14768 27.8815 6.1786C28.011 6.18386 28.1283 6.21128 28.2512 6.22849C28.2511 6.2285 28.2466 6.22816 28.2466 6.22816C28.3062 6.24558 28.3745 6.24923 28.4527 6.237C28.4527 6.237 28.4507 6.23697 28.4507 6.23699C28.632 6.2086 28.865 6.21883 29.091 6.22857C29.6578 6.25301 30.2242 6.28781 30.7898 6.3009C31.1099 6.30833 31.3763 6.32036 31.6462 6.35442C32.3493 6.44316 33.1111 6.49811 33.9313 6.51617C34.0847 6.52201 34.2381 6.52786 34.3915 6.53372C35.0054 6.54959 35.6146 6.5353 36.2318 6.57057C36.4497 6.54677 36.6983 6.5525 36.9546 6.56596C37.0318 6.56886 37.109 6.57175 37.186 6.57465L37.2956 6.57616L37.4027 6.58295L37.4035 6.5836C37.4947 6.57507 37.5788 6.57801 37.6546 6.59431C37.6546 6.59431 37.6561 6.59363 37.656 6.59365C37.95 6.60519 38.2441 6.61672 38.5382 6.62829C38.7006 6.61073 38.8861 6.61745 39.0757 6.62503C39.8258 6.65498 40.5763 6.68429 41.3266 6.71385C41.403 6.71748 41.4795 6.72111 41.5559 6.72474C41.7078 6.73075 41.8597 6.73678 42.0115 6.74281C42.1919 6.71806 42.4098 6.72061 42.6425 6.73045C43.4291 6.76376 44.2161 6.79635 45.0031 6.82924C45.7282 6.81936 46.7759 6.863 47.5572 6.93567C47.6893 6.93986 47.8215 6.94403 47.9537 6.94826C48.114 6.93006 48.2989 6.93555 48.4894 6.94378C48.8638 6.95997 49.2388 6.97535 49.6136 6.99105C49.6906 6.99407 49.7677 6.99709 49.8446 7.00011C49.9912 7.00549 50.1377 7.01086 50.2844 7.01627C50.2845 7.01629 50.2881 7.01773 50.2881 7.01773C50.4726 7.00201 50.641 7.01429 50.8023 7.039C50.8514 7.0366 50.9018 7.03724 50.9535 7.04098C50.9734 7.03179 50.9935 7.0226 51.014 7.01345C51.0664 7.00628 51.1206 7.00094 51.1757 6.99638C51.196 7.00924 51.2318 7.02458 51.2825 7.04266C52.3307 7.09689 53.4125 7.11319 54.44 7.19554C54.529 7.22243 54.6797 7.22738 54.8266 7.23367C54.933 7.23736 55.023 7.23351 55.0966 7.22209L55.0912 7.22348C55.391 7.19716 55.756 7.2584 56.0511 7.22585L56.145 7.22559L56.2351 7.23301C56.7819 7.20802 57.3521 7.29794 57.8971 7.26416L57.885 7.26469C58.1927 7.24788 58.4911 7.22418 58.8553 7.24871C58.9515 7.25258 59.0463 7.25366 59.1404 7.25219C59.3244 7.24883 59.5155 7.25821 59.6995 7.25564C59.7906 7.25416 59.8782 7.25108 59.9615 7.24576C60.0788 7.23581 60.1805 7.22266 60.2677 7.20634L60.2674 7.20763C60.5098 7.19952 60.702 7.17603 60.9076 7.1567C61.3225 7.13728 61.8447 7.19191 62.2008 7.13168L62.2009 7.133C62.8129 7.11749 63.3875 7.17901 63.9812 7.20169C63.9896 7.20217 63.9981 7.20255 64.0065 7.20302C64.0259 7.20711 64.0552 7.21079 64.0933 7.21364C64.2245 7.2235 64.3659 7.22771 64.5029 7.23439C64.5218 7.22583 64.5353 7.21692 64.5457 7.20779C64.5502 7.20757 64.5547 7.20737 64.5592 7.20715C64.5674 7.20571 64.5752 7.20421 64.5833 7.20277C64.7816 7.20814 64.98 7.21356 65.1784 7.21897C65.1021 7.18314 64.9552 7.17134 64.7951 7.16404C64.9622 7.14888 65.1459 7.14823 65.3337 7.15114C65.4595 7.15588 65.5852 7.16062 65.711 7.16536C65.7157 7.16311 65.7204 7.16086 65.7251 7.15861C65.8133 7.15984 65.9005 7.16022 65.9852 7.15853C66.6913 7.17316 67.397 7.17689 68.1054 7.19794C68.8527 7.16808 69.6173 7.27007 70.3661 7.24544L70.3587 7.24599C71.028 7.23684 71.6771 7.29296 72.3387 7.31267C72.4459 7.31781 72.5513 7.32002 72.6582 7.31917C72.8182 7.28309 72.879 7.33755 72.9975 7.33777C73.1041 7.33992 73.2092 7.33962 73.312 7.33711C73.9643 7.3321 74.6005 7.35845 75.2214 7.41369C75.5066 7.47079 75.8979 7.45605 76.2324 7.47962C76.36 7.48697 76.4703 7.48401 76.5632 7.47072L76.5579 7.47208C76.9696 7.44841 77.4095 7.513 77.8222 7.49131C77.9235 7.48853 78.0255 7.48632 78.1279 7.48449C78.3391 7.4918 78.5566 7.4894 78.7428 7.50537C79.6091 7.57969 80.5196 7.59558 81.4028 7.64432L81.4096 7.64394C81.4598 7.64032 81.4862 7.63454 81.4911 7.62681C81.7038 7.63708 81.9309 7.6381 82.1089 7.67049C82.1089 7.67049 82.1243 7.66806 82.1241 7.66811C82.4135 7.67102 82.7032 7.67391 82.9928 7.67678C82.9994 7.67608 83.0065 7.67544 83.0132 7.67476C83.0148 7.67528 83.0169 7.67576 83.0185 7.67627C83.0152 7.67613 83.0118 7.676 83.0085 7.67586C83.0225 7.67947 83.0371 7.68276 83.0519 7.68594C83.0848 7.6942 83.125 7.70166 83.1739 7.70818C83.1813 7.70874 83.1887 7.70921 83.196 7.70975C83.4403 7.74066 83.7481 7.74116 84.0184 7.75887C84.2978 7.77718 84.6181 7.77396 84.828 7.82561C85.0388 7.83522 85.2495 7.84482 85.4603 7.85441C85.4634 7.85432 85.4649 7.85407 85.4678 7.85398C85.4726 7.85459 85.4776 7.8551 85.4824 7.85572C85.5625 7.85965 85.643 7.86277 85.7236 7.86548C85.7289 7.86622 85.7329 7.86695 85.7389 7.86769C85.7389 7.86769 85.7403 7.86684 85.7403 7.86686C86.7059 7.9084 87.6716 7.94995 88.6373 7.9915C89.2419 8.0227 89.8446 8.05609 90.4464 8.09043C91.1622 8.10886 91.793 8.19851 92.5151 8.21282C92.6274 8.22207 92.7422 8.22917 92.8604 8.23403C93.4325 8.259 94.0048 8.28327 94.5781 8.30794C94.6874 8.31269 94.7955 8.31728 94.9052 8.32178C95.1668 8.31779 95.4089 8.34095 95.6574 8.35478C95.95 8.36641 96.241 8.38009 96.5336 8.39148C96.8172 8.39028 97.1003 8.38971 97.3687 8.42251C97.4598 8.43003 97.5534 8.43592 97.6491 8.43981C97.7936 8.44557 97.9399 8.45246 98.0502 8.43303L98.0425 8.43466C99.1632 8.44335 100.252 8.52304 101.363 8.55983C101.477 8.5647 101.589 8.56965 101.704 8.57477C102.005 8.58386 102.311 8.57021 102.602 8.6051C102.693 8.61393 102.786 8.6207 102.883 8.62504C103.026 8.63141 103.169 8.63763 103.312 8.64304C103.411 8.64593 103.497 8.64238 103.568 8.63234L103.563 8.63314C104.338 8.61411 105.109 8.71758 105.883 8.69291C106.259 8.66507 106.683 8.73635 107.057 8.70528L107.141 8.70341L107.226 8.70916C107.625 8.68703 108.061 8.75537 108.458 8.7249L108.543 8.72375L108.628 8.72983C108.702 8.73035 108.74 8.72629 108.748 8.71868C108.75 8.71874 108.751 8.7188 108.753 8.71888C109.088 8.73317 109.424 8.74805 109.759 8.76169C109.878 8.76692 109.982 8.76399 110.072 8.75286L110.066 8.75369C110.364 8.73382 110.666 8.76762 110.966 8.7737C111.073 8.77748 111.164 8.77376 111.239 8.76248L111.232 8.7636C111.451 8.74137 111.742 8.78349 111.956 8.75692L111.955 8.75704C112.322 8.73386 112.689 8.77789 113.056 8.7843C113.168 8.78869 113.266 8.78535 113.348 8.77422L113.342 8.77513C113.56 8.75199 113.854 8.79566 114.068 8.76859L114.153 8.76656L114.238 8.77251C114.475 8.7554 114.77 8.79432 114.997 8.76767C115.368 8.73821 115.797 8.81249 116.165 8.77759C116.479 8.75809 116.795 8.79309 117.11 8.80029C117.267 8.80654 117.428 8.81622 117.56 8.79804C118.018 8.77078 118.51 8.85178 118.966 8.81937L118.963 8.81966C119.482 8.80143 119.987 8.855 120.499 8.86631C120.622 8.87297 120.728 8.86995 120.817 8.85717L120.811 8.85836C121.311 8.84221 121.797 8.89191 122.291 8.90401C122.401 8.90891 122.51 8.91236 122.62 8.91429C122.909 8.88347 123.233 8.9048 123.552 8.91807C123.664 8.92225 123.76 8.91888 123.837 8.90668L123.831 8.90802C124.049 8.88614 124.345 8.92954 124.555 8.90017L124.548 8.90052C124.7 8.88617 124.891 8.89911 125.051 8.89109C125.194 8.87684 125.379 8.87821 125.517 8.86231L125.512 8.86277C125.666 8.84913 125.836 8.85837 126.004 8.86436C126.091 8.86509 126.166 8.86097 126.225 8.85125L126.219 8.85242C126.433 8.82917 126.735 8.87479 126.939 8.84254C127.104 8.83047 127.305 8.84404 127.472 8.83283C127.659 8.80809 127.945 8.84211 128.129 8.81518C128.273 8.80274 128.471 8.81627 128.6 8.797C128.703 8.7914 128.786 8.78086 128.866 8.7694C128.957 8.76145 129.043 8.75229 129.114 8.73974C129.213 8.73262 129.302 8.7232 129.364 8.70798C129.528 8.69712 129.511 8.65924 129.653 8.64507L129.651 8.64541C129.741 8.63591 129.837 8.62772 129.895 8.61174L129.873 8.6126C129.955 8.6083 130.01 8.59925 130.038 8.58539C130.063 8.5572 130.072 8.52771 130.202 8.50839L130.195 8.50997C130.437 8.48437 130.317 8.42432 130.495 8.3926C130.479 8.38216 130.491 8.37361 130.532 8.36692C130.847 8.32083 130.575 8.22871 130.885 8.18225L130.881 8.18293C131.034 8.16767 131.023 8.13129 131.153 8.11316C131.3 8.09906 131.513 8.11534 131.64 8.09216L131.627 8.09408C131.731 8.08922 131.811 8.07778 131.899 8.06834L131.901 8.06807C131.984 8.0584 132.069 8.0493 132.148 8.03871C132.239 8.02957 132.333 8.02108 132.395 8.00594C132.555 7.99421 132.54 7.95684 132.68 7.94206L132.678 7.94247C132.768 7.93401 132.853 7.92441 132.932 7.91327C133.023 7.90499 133.11 7.89566 133.184 7.88351C133.337 7.87068 133.315 7.83233 133.471 7.82003L133.476 7.81904C133.552 7.80766 133.647 7.79995 133.706 7.78544C134.005 7.75473 133.774 7.67582 134.038 7.64199L134.03 7.64255C134.166 7.63045 134.279 7.61423 134.353 7.59063C134.564 7.51704 134.857 7.45704 135.306 7.41251C135.547 7.59088 136.277 7.537 136.875 7.5482C136.976 7.55266 137.077 7.55457 137.177 7.55377C137.368 7.54819 137.523 7.5331 137.654 7.51079C137.709 7.49919 137.754 7.48646 137.787 7.47221C137.809 7.44971 137.846 7.42879 137.947 7.41449L137.943 7.41546C138.15 7.39639 138.049 7.34001 138.271 7.32276C138.41 7.30193 138.607 7.30459 138.776 7.29574C139.018 7.27485 139.247 7.25072 139.456 7.22183C139.567 7.20816 139.653 7.1904 139.731 7.17128L139.723 7.17397C140.041 7.14484 139.789 7.06308 140.073 7.03075L140.07 7.03121C140.298 7.00833 140.154 6.94773 140.37 6.92369C140.573 6.88002 140.64 6.83103 140.44 6.77163L140.457 6.77543C140.417 6.75545 140.339 6.73929 140.259 6.72319L140.263 6.72439C140.148 6.6971 140.214 6.66196 140.068 6.63601L140.073 6.63978C139.955 6.56881 139.442 6.71522 139.421 6.59046C138.621 6.46116 138.421 6.67921 137.759 6.63325C137.879 6.57365 138.225 6.53441 138.21 6.4568C138.194 6.3673 137.964 6.37061 137.636 6.39507C137.599 6.39579 137.562 6.39653 137.525 6.39726C137.147 6.37343 136.77 6.36879 136.393 6.36593C136.243 6.34414 136.117 6.31053 136.026 6.25946C135.998 6.24359 135.745 6.25019 135.61 6.26111C135.431 6.28237 135.312 6.3115 135.257 6.34951C135.247 6.35801 135.26 6.36271 135.277 6.36536C135.269 6.36509 135.264 6.3648 135.253 6.36454C135.173 6.36251 135.143 6.34432 135.103 6.33287C135.029 6.31823 134.947 6.30717 134.86 6.29794C135.03 6.2822 135.194 6.26588 135.247 6.23403C135.435 6.26229 135.634 6.26562 135.842 6.24483C135.928 6.23589 136.014 6.22694 136.1 6.218C136.521 6.2367 136.782 6.19459 137.061 6.16127C137.27 6.13639 137.24 6.0956 136.983 6.06993C136.818 6.0535 136.628 6.04647 136.449 6.03523L136.449 6.03523L136.45 6.03516C136.474 6.01118 136.498 5.98721 136.522 5.96318C136.522 5.96317 136.523 5.96317 136.523 5.96316C137.437 5.99524 137.437 5.99524 137.939 5.94342C137.638 5.93049 137.379 5.92064 137.122 5.90779C136.997 5.90151 136.939 5.88509 137.048 5.87043C137.096 5.86402 137.19 5.86722 137.263 5.86607C137.263 5.86607 137.263 5.86607 137.263 5.86608C137.451 5.87831 137.62 5.87975 137.735 5.8516L137.735 5.8516C137.735 5.8516 137.735 5.8516 137.735 5.8516C137.735 5.8516 137.738 5.85106 137.738 5.85108L137.738 5.85106C137.988 5.84166 138.238 5.83311 138.511 5.84875C138.823 5.86657 139.108 5.85269 139.399 5.84701C139.466 5.84648 139.534 5.84794 139.601 5.85135C139.818 5.82693 140.117 5.87121 140.329 5.84307L140.324 5.84332C140.484 5.82202 140.778 5.85576 140.888 5.81407C140.561 5.6679 139.91 5.78051 139.466 5.72816C139.327 5.67735 139.064 5.67226 138.812 5.66305C138.637 5.71409 138.396 5.74739 138.055 5.75456C138.031 5.73076 137.875 5.7207 137.727 5.70973C137.575 5.70555 137.428 5.70753 137.283 5.71164C137.189 5.71366 137.094 5.71531 137 5.71788C136.805 5.7203 136.61 5.71338 136.415 5.70497C136.01 5.68737 135.607 5.66354 135.228 5.65094C135.405 5.65394 135.59 5.65942 135.779 5.66951C136.182 5.69101 136.533 5.67131 136.615 5.5915C136.607 5.5806 136.587 5.57057 136.556 5.56121C136.65 5.56197 136.745 5.56367 136.831 5.5605C136.871 5.55902 136.882 5.54283 136.906 5.53335C136.847 5.53066 136.765 5.52263 136.732 5.52633C136.659 5.53452 136.603 5.5466 136.544 5.55789C136.522 5.55188 136.497 5.54607 136.466 5.54068C136.074 5.48182 135.719 5.54431 135.312 5.53115C135.575 5.53439 135.798 5.52628 135.855 5.48983C135.947 5.43137 135.615 5.43758 135.43 5.41757C135.252 5.39841 134.98 5.40793 134.865 5.36944C134.913 5.37153 134.962 5.37363 135.01 5.37571C135.073 5.37869 135.135 5.38162 135.198 5.38451L135.198 5.38449C135.284 5.38882 135.37 5.39315 135.456 5.39748C135.278 5.29654 135.137 5.28429 134.553 5.31937C134.234 5.3095 134.036 5.27295 133.83 5.22613C134.264 5.21291 134.596 5.16749 135.034 5.21366C135.052 5.21555 135.116 5.21055 135.12 5.20664C135.131 5.1961 135.148 5.18177 135.116 5.17359C134.706 5.06784 134.168 5.00318 133.459 4.99703C133.348 4.99607 133.318 5.00377 133.367 5.01612C133.589 5.06348 133.997 5.03418 134.265 5.09795C133.93 5.08893 133.667 5.08175 133.403 5.07472C133.011 5.06426 133.22 5.14207 133.026 5.15996C132.978 5.15433 132.93 5.1488 132.886 5.14326C132.798 5.1337 132.707 5.1252 132.613 5.11788C132.278 5.02873 131.869 4.95578 131.227 4.92528C130.977 4.91342 130.737 4.8801 130.584 4.83586C130.464 4.80123 130.326 4.79808 130.175 4.81892C129.898 4.84774 129.608 4.82653 129.311 4.80625C128.838 4.77393 128.6 4.76822 128.069 4.78028C127.998 4.77556 127.927 4.77046 127.858 4.76451C127.749 4.76072 127.641 4.7594 127.535 4.76123C127.475 4.76323 127.419 4.76589 127.365 4.76893C126.927 4.74192 126.491 4.72677 126.065 4.75698C126.037 4.75898 125.994 4.75613 125.958 4.75553C125.911 4.74825 125.859 4.74267 125.801 4.73881C125.802 4.73879 125.802 4.7388 125.802 4.73878C125.678 4.69194 125.508 4.65076 125.191 4.65603C124.81 4.66238 124.435 4.64551 124.057 4.63093C123.736 4.61853 123.449 4.61817 123.244 4.66089C123.088 4.69327 122.876 4.69211 122.635 4.68188C121.732 4.64349 120.827 4.60664 119.923 4.56856C119.789 4.56291 119.656 4.5564 119.536 4.54451C119.543 4.53817 119.549 4.53165 119.554 4.52509C119.489 4.50878 119.424 4.49249 119.358 4.4762C119.205 4.48368 119.051 4.49118 118.898 4.49863C118.895 4.50311 118.893 4.50753 118.892 4.51191C118.774 4.51855 118.657 4.52514 118.537 4.53192C118.697 4.57004 119.001 4.58384 119.055 4.63624C119.056 4.63775 119.056 4.6389 119.057 4.64032C118.93 4.63111 118.801 4.62239 118.672 4.61423C118.011 4.50012 117.148 4.44562 116.326 4.37904C116.335 4.36902 116.344 4.35901 116.353 4.349C116.212 4.34248 116.07 4.33597 115.929 4.32945C115.81 4.29018 115.446 4.30662 115.389 4.25324C115.395 4.22944 115.409 4.20543 115.293 4.18361L115.301 4.18603C115.242 4.16852 115.17 4.16393 115.082 4.17427C115.013 4.17327 114.945 4.17053 114.878 4.16607C114.839 4.17503 114.74 4.17506 114.624 4.17269C114.574 4.1625 114.526 4.15204 114.48 4.14094C114.458 4.13579 114.448 4.12941 114.432 4.12362C115.109 4.05259 115.969 4.01029 116.791 4.01159C117.163 4.01217 117.567 4.02975 117.757 3.95945C117.757 3.95945 117.753 3.9582 117.753 3.95824C117.748 3.9037 118.175 3.89142 118.099 3.82605C117.458 3.79246 116.825 3.76729 116.168 3.75566C115.409 3.74221 114.643 3.7057 113.883 3.67479C113.753 3.66953 113.636 3.64211 113.513 3.6249C113.513 3.62489 113.518 3.62523 113.518 3.62523C113.458 3.60781 113.39 3.60417 113.312 3.61639C113.312 3.61639 113.314 3.61644 113.314 3.6164C113.132 3.64479 112.899 3.63456 112.673 3.62482C112.107 3.60039 111.54 3.56558 110.975 3.55249C110.655 3.54506 110.388 3.53303 110.118 3.49897C109.415 3.41023 108.653 3.35528 107.833 3.33722C107.68 3.33138 107.526 3.32553 107.373 3.31967C106.759 3.3038 106.15 3.31809 105.533 3.28283C105.315 3.30664 105.066 3.30089 104.81 3.28743C104.733 3.28453 104.656 3.28164 104.578 3.27875L104.469 3.27723L104.362 3.27044L104.361 3.2698C104.27 3.27832 104.186 3.27538 104.11 3.25908C104.11 3.25908 104.108 3.25976 104.109 3.25975C103.815 3.2482 103.52 3.23667 103.226 3.22511C103.064 3.24266 102.878 3.23594 102.689 3.22837C101.939 3.19841 101.188 3.1691 100.438 3.13955C100.362 3.13592 100.285 3.13229 100.209 3.12866C100.057 3.12265 99.9049 3.11662 99.7531 3.11059C99.5727 3.13533 99.3548 3.13279 99.1221 3.12294C98.3355 3.08964 97.5485 3.05704 96.7615 3.02415C96.0364 3.03403 94.9887 2.9904 94.2074 2.91773C94.0753 2.91352 93.9431 2.90936 93.8108 2.90513C93.6506 2.92333 93.4657 2.91784 93.2753 2.90962C92.9008 2.89343 92.5258 2.87805 92.1511 2.86235C92.074 2.85933 91.997 2.85631 91.92 2.85328C91.7735 2.84791 91.627 2.84254 91.4803 2.83713C91.4802 2.83711 91.4765 2.83567 91.4765 2.83567C91.292 2.85138 91.1237 2.83911 90.9624 2.8144C90.9133 2.8168 90.8629 2.81615 90.8111 2.81242C90.7913 2.82161 90.7712 2.8308 90.7507 2.83995C90.6983 2.84712 90.644 2.85246 90.5889 2.85702C90.5686 2.84416 90.5329 2.82882 90.4822 2.81074C89.434 2.7565 88.3521 2.74021 87.3246 2.65785C87.2357 2.63097 87.0849 2.62601 86.9379 2.61972C86.8315 2.61603 86.7415 2.61989 86.668 2.6313L86.6734 2.62992C86.3736 2.65624 86.0086 2.59499 85.7134 2.62754L85.6195 2.6278L85.5294 2.62039C84.9826 2.64538 84.4124 2.55545 83.8674 2.58923L83.8795 2.5887C83.5718 2.60551 83.2734 2.62921 82.9092 2.60468C82.813 2.60081 82.7183 2.59973 82.6241 2.60121C82.4401 2.60458 82.249 2.59518 82.065 2.59775C81.9739 2.59924 81.8863 2.60231 81.803 2.60763C81.6857 2.61758 81.584 2.63074 81.4968 2.64705L81.4971 2.64576C81.2548 2.65387 81.0625 2.67736 80.857 2.6967C80.4421 2.71612 79.9199 2.66149 79.5638 2.72171L79.5637 2.72039C78.9517 2.73591 78.3771 2.67438 77.7833 2.65171C77.7749 2.65122 77.7664 2.65084 77.7581 2.65038C77.7386 2.64628 77.7093 2.6426 77.6712 2.63975C77.54 2.62989 77.3985 2.62568 77.2616 2.619C77.2427 2.62756 77.2292 2.63648 77.2188 2.6456C77.2143 2.64583 77.2098 2.64602 77.2053 2.64624C77.1971 2.64769 77.1893 2.64918 77.1812 2.65063C76.983 2.64526 76.7845 2.63983 76.5861 2.63443C76.6624 2.67025 76.8093 2.68205 76.9694 2.68935C76.8023 2.70451 76.6186 2.70516 76.4308 2.70225C76.305 2.69751 76.1793 2.69278 76.0535 2.68804C76.0488 2.69028 76.0441 2.69254 76.0394 2.69478C75.9512 2.69356 75.864 2.69317 75.7793 2.69486C75.0732 2.68023 74.3675 2.67651 73.6591 2.65545C72.9118 2.68531 72.1472 2.58332 71.3985 2.60795L71.4058 2.6074C70.7365 2.61655 70.0874 2.56043 69.4258 2.54072C69.3186 2.53558 69.2132 2.53337 69.1063 2.53423C68.9463 2.5703 68.8855 2.51585 68.7671 2.51563C68.6605 2.51348 68.5554 2.51378 68.4526 2.51629C67.8003 2.5213 67.1641 2.49494 66.5432 2.4397C66.258 2.38261 65.8667 2.39735 65.5322 2.37377C65.4046 2.36643 65.2943 2.36939 65.2014 2.38266L65.2067 2.38129C64.795 2.40497 64.355 2.34038 63.9424 2.36207C63.8411 2.36485 63.739 2.36706 63.6367 2.36889C63.4255 2.36158 63.208 2.36398 63.0217 2.34801C62.1554 2.27368 61.2449 2.25779 60.3617 2.20905L60.355 2.20944C60.3047 2.21306 60.2783 2.21883 60.2734 2.22657C60.0607 2.2163 59.8336 2.21526 59.6557 2.18289C59.6557 2.18289 59.6403 2.18532 59.6405 2.18527C59.3511 2.18236 59.0614 2.17948 58.7718 2.17661C58.7652 2.17731 58.7581 2.17794 58.7514 2.17864C58.7498 2.17811 58.7478 2.17764 58.7461 2.17711C58.7494 2.17725 58.7528 2.17738 58.7561 2.17751C58.7421 2.17391 58.7276 2.17062 58.7127 2.16744C58.6798 2.15918 58.6396 2.15172 58.5907 2.14519C58.5833 2.14464 58.5759 2.14416 58.5685 2.14363C58.3242 2.11272 58.0164 2.11222 57.7462 2.09451C57.4667 2.0762 57.1465 2.07942 56.9366 2.02777C56.7258 2.01816 56.5151 2.00856 56.3043 1.99897C56.3012 1.99906 56.2997 1.99931 56.2968 1.9994C56.2919 1.99879 56.287 1.99828 56.2822 1.99767C56.2021 1.99375 56.1216 1.99062 56.041 1.98792C56.0356 1.98718 56.0317 1.98645 56.0257 1.98571C56.0257 1.98571 56.0243 1.98655 56.0243 1.98654C55.0587 1.94499 54.093 1.90344 53.1272 1.86189C52.5227 1.8307 51.92 1.7973 51.3182 1.76296C50.6024 1.74454 49.9716 1.65489 49.2495 1.64057C49.1372 1.63133 49.0223 1.62422 48.9042 1.61937C48.332 1.59439 47.7598 1.57012 47.1865 1.54545C47.0772 1.54071 46.9691 1.53611 46.8594 1.53162C46.5978 1.5356 46.3557 1.51245 46.1071 1.49861C45.8146 1.48698 45.5236 1.47331 45.231 1.46192C44.9473 1.46311 44.6643 1.4637 44.3959 1.43089C44.3048 1.42337 44.2112 1.41747 44.1154 1.41358C43.971 1.40783 43.8246 1.40093 43.7144 1.42036L43.7221 1.41874C42.6014 1.41004 41.5124 1.33035 40.4019 1.29357C40.2873 1.28869 40.1752 1.28375 40.0606 1.27862C39.7593 1.26954 39.4535 1.28319 39.1623 1.24829C39.0719 1.23947 38.9789 1.2327 38.8812 1.22836C38.7382 1.22199 38.5956 1.21577 38.4526 1.21037C38.3534 1.20748 38.268 1.21103 38.1964 1.22107L38.2015 1.22027C37.4267 1.2393 36.6561 1.13583 35.8811 1.1605C35.5054 1.18834 35.0813 1.11706 34.7073 1.14813L34.6232 1.15001L34.5386 1.14427C34.1392 1.1664 33.7032 1.09804 33.3071 1.12851L33.2213 1.12967L33.1366 1.12358C33.0625 1.12306 33.0249 1.12712 33.0162 1.13473C33.0147 1.13467 33.0132 1.13461 33.0116 1.13454C32.6764 1.12026 32.341 1.10538 32.0052 1.09174C31.887 1.08651 31.7828 1.08943 31.6926 1.10057L31.6982 1.09974C31.4007 1.11961 31.0986 1.0858 30.799 1.07973C30.692 1.07594 30.6009 1.07967 30.5258 1.09095L30.5322 1.08983C30.3136 1.11206 30.0226 1.06993 29.8089 1.09651L29.8094 1.09639C29.4423 1.11957 29.0752 1.07554 28.7082 1.06913C28.5962 1.06474 28.499 1.06808 28.4167 1.07921L28.423 1.0783C28.2041 1.10144 27.9106 1.05776 27.6962 1.08484L27.6116 1.08686L27.5266 1.08092C27.2897 1.09803 26.9941 1.05911 26.7673 1.08576C26.3963 1.11522 25.9671 1.04093 25.5993 1.07584C25.2853 1.09534 24.9696 1.06034 24.6549 1.05314C24.4974 1.04689 24.3363 1.0372 24.2041 1.05539C23.7467 1.08264 23.2541 1.00165 22.7985 1.03406L22.8018 1.03377C22.283 1.05199 21.7781 0.99843 21.2651 0.98712C21.1425 0.980454 21.0367 0.98348 20.9479 0.996258L20.9536 0.995064C20.4537 1.01122 19.9677 0.961521 19.4734 0.949415C19.3639 0.944516 19.2545 0.941064 19.1443 0.939138C18.8557 0.969959 18.5315 0.948625 18.2129 0.935359C18.101 0.931175 18.0049 0.934529 17.9272 0.946755L17.9337 0.945406C17.7152 0.967309 17.4199 0.923886 17.2102 0.953263L17.2164 0.952912C17.0647 0.967257 16.8741 0.954323 16.7135 0.962342C16.5711 0.976609 16.3857 0.975221 16.2478 0.991123L16.2526 0.99066C16.0988 1.0043 15.9284 0.995059 15.7607 0.989073C15.6735 0.98834 15.5991 0.992458 15.5398 1.00218L15.5463 1.00101C15.3316 1.02427 15.0293 0.978643 14.8261 1.0109C14.6611 1.02297 14.4595 1.0094 14.2933 1.0206C14.106 1.04535 13.8194 1.01132 13.6357 1.03825C13.4923 1.0507 13.2935 1.03717 13.1646 1.05644C13.0617 1.06204 12.9784 1.07258 12.8987 1.08404C12.8077 1.09199 12.7221 1.10114 12.6512 1.11369C12.5519 1.12082 12.463 1.13023 12.4006 1.14546C12.2371 1.15632 12.2534 1.1942 12.112 1.20836L12.1138 1.20802C12.0239 1.21752 11.9278 1.22572 11.8694 1.24169L11.8915 1.24083C11.8101 1.24513 11.7553 1.25419 11.7272 1.26806C11.702 1.29625 11.6925 1.32574 11.5627 1.34506L11.5701 1.34348C11.3282 1.36908 11.4475 1.42913 11.2698 1.46085C11.2862 1.47129 11.2738 1.47985 11.233 1.48653C10.9179 1.53262 11.1903 1.62474 10.8801 1.67121L10.8836 1.67052C10.731 1.68578 10.7419 1.72216 10.6118 1.74029C10.4649 1.75441 10.2516 1.73811 10.1246 1.76129L10.1382 1.75937C10.0337 1.76423 9.95357 1.77568 9.86599 1.78512L9.86341 1.78538C9.78074 1.79505 9.69559 1.80414 9.61697 1.81474C9.52615 1.82389 9.43211 1.83237 9.36975 1.84752C9.20962 1.85924 9.22435 1.89661 9.085 1.9114L9.0872 1.91099C8.99693 1.91944 8.91162 1.92905 8.83283 1.94019C8.74181 1.94847 8.65537 1.95779 8.58124 1.96995C8.42834 1.98278 8.45029 2.02112 8.29363 2.03343L8.28891 2.03442C8.21307 2.0458 8.11836 2.0535 8.05852 2.06802C7.75951 2.09872 7.99124 2.17764 7.72668 2.21146L7.73478 2.2109C7.59905 2.223 7.48557 2.23922 7.41238 2.26282C7.20124 2.3364 6.90739 2.39641 6.45916 2.44095C6.21769 2.26257 5.48795 2.31645 4.88989 2.30525C4.78837 2.30079 4.68807 2.2989 4.58745 2.29968C4.39706 2.30526 4.24144 2.32035 4.11092 2.34266C4.05532 2.35426 4.01102 2.36699 3.97824 2.38125C3.95564 2.40374 3.91911 2.42466 3.8174 2.43896L3.82204 2.43799C3.61438 2.45706 3.71627 2.51344 3.49348 2.53069C3.35485 2.55152 3.1573 2.54886 2.9888 2.55771C2.74677 2.57859 2.51772 2.60273 2.30825 2.63162C2.19765 2.64529 2.11155 2.66305 2.03366 2.68217L2.04152 2.67948C1.72337 2.70861 1.97542 2.79036 1.69208 2.8227L1.69436 2.82224C1.46686 2.84512 1.61118 2.90572 1.39505 2.92975C1.19186 2.97343 1.12447 3.02241 1.32437 3.08181L1.30785 3.07802C1.34745 3.098 1.42616 3.11416 1.5054 3.13026L1.50212 3.12906C1.61646 3.15635 1.55092 3.19149 1.6966 3.21743L1.69135 3.21367C1.80958 3.28462 2.32319 3.13823 2.34365 3.26299C3.14375 3.39229 3.3438 3.17424 4.00618 3.2202C3.88624 3.27981 3.54019 3.31906 3.55452 3.39665C3.57107 3.48615 3.80084 3.48284 4.1283 3.45838C4.16551 3.45766 4.20279 3.45692 4.23992 3.45619C4.61783 3.48002 4.99511 3.48464 5.37222 3.48751C5.52165 3.50931 5.64729 3.54292 5.73831 3.59399C5.76655 3.60985 6.0197 3.60326 6.15433 3.59234C6.33409 3.57108 6.4525 3.54195 6.50792 3.50394C6.51793 3.49544 6.50454 3.49074 6.48822 3.48808C6.4957 3.48836 6.50121 3.48865 6.51163 3.48891C6.59205 3.49092 6.62143 3.50913 6.66196 3.52058C6.73528 3.53522 6.81747 3.5463 6.90433 3.55551C6.73516 3.57125 6.57089 3.58756 6.51755 3.61942C6.32932 3.59116 6.13081 3.58782 5.92227 3.60861C5.83622 3.61756 5.75017 3.6265 5.66412 3.63544C5.24396 3.61676 4.98277 3.65885 4.70326 3.69219C4.49459 3.71707 4.52501 3.75787 4.78187 3.78353C4.94635 3.79996 5.13651 3.80699 5.31513 3.81823L5.3152 3.81823C5.3152 3.81823 5.3152 3.81823 5.3152 3.81825L5.31482 3.81832C5.29051 3.84229 5.26628 3.86628 5.24219 3.89029C5.24204 3.89031 5.24197 3.8903 5.24189 3.89032C4.32719 3.85824 4.32719 3.85824 3.82606 3.91006C4.12699 3.92298 4.38606 3.93284 4.6424 3.94569C4.76781 3.95196 4.82566 3.96839 4.71608 3.98305C4.6682 3.98945 4.57466 3.98625 4.50184 3.98741C4.50177 3.9874 4.50177 3.9874 4.50177 3.9874C4.50177 3.9874 4.50177 3.9874 4.50184 3.98741C4.3135 3.97518 4.14471 3.97374 4.0292 4.00189L4.02928 4.00189L4.0292 4.00189C4.0292 4.00189 4.02639 4.00243 4.02639 4.00241L4.02639 4.00243C3.77656 4.01183 3.52659 4.02038 3.25303 4.00474C2.9413 3.98693 2.65671 4.00081 2.36527 4.00649C2.29822 4.00701 2.23093 4.00555 2.16346 4.00214C1.94665 4.02655 1.64781 3.98228 1.4355 4.01042L1.44034 4.01018C1.28091 4.03136 0.986362 3.99762 0.876867 4.03933ZM135.507 6.0298C135.513 6.02918 135.517 6.02865 135.523 6.02805C135.525 6.02896 135.528 6.02984 135.531 6.03075C135.523 6.03046 135.515 6.03011 135.507 6.02985C135.507 6.02985 135.507 6.02986 135.507 6.02986C135.507 6.02983 135.507 6.02982 135.507 6.0298ZM17.3159 5.13393C17.3089 5.13317 17.3019 5.13251 17.2949 5.13177C17.3556 5.13267 17.4159 5.13363 17.4803 5.13395C17.4238 5.13442 17.3694 5.13429 17.3159 5.13393ZM134.794 6.04176C134.798 6.04269 134.803 6.04362 134.807 6.04454C134.807 6.04452 134.794 6.04177 134.794 6.0418C134.79 6.04166 134.787 6.04153 134.783 6.04141C134.772 6.03716 134.76 6.03292 134.749 6.0287C134.765 6.03274 134.781 6.03704 134.794 6.04176ZM124.449 4.71947C124.456 4.72022 124.463 4.72089 124.47 4.72163C124.409 4.72073 124.349 4.71977 124.284 4.71945C124.341 4.71897 124.395 4.7191 124.449 4.71947ZM6.9579 3.80886C6.95805 3.80888 6.97119 3.81164 6.97119 3.8116C6.97481 3.81175 6.97836 3.81187 6.98206 3.812C6.99342 3.81625 7.0047 3.82049 7.01568 3.82471C6.99948 3.82064 6.98435 3.81635 6.97127 3.81162C6.96676 3.81071 6.96233 3.80979 6.9579 3.80886ZM6.25762 3.82355C6.2577 3.82355 6.25777 3.82354 6.25777 3.82354C6.25777 3.82355 6.2577 3.82357 6.25769 3.82358C6.25208 3.8242 6.24738 3.82473 6.24192 3.82534C6.23961 3.82443 6.23646 3.82354 6.23407 3.82263C6.24192 3.82294 6.24977 3.82329 6.25762 3.82355Z" fill="#F20083"/>
</svg>
