<svg width="87" height="72" viewBox="0 0 87 72" fill="none" xmlns="http://www.w3.org/2000/svg">
<path d="M7.83203 66.1484C13.6654 63.6875 18.6784 59.8138 22.8711 54.5273C27.0638 49.332 29.1602 44.0456 29.1602 38.668C29.1602 36.3893 28.8867 34.4297 28.3398 32.7891C25.1497 35.25 21.6862 36.4805 17.9492 36.4805C12.8451 36.4805 8.60677 34.8398 5.23438 31.5586C1.77083 28.3685 0.0390625 24.0391 0.0390625 18.5703C0.0390625 13.4661 1.77083 9.18229 5.23438 5.71875C8.69792 2.34635 12.9362 0.660156 17.9492 0.660156C25.1497 0.660156 30.6641 3.6224 34.4922 9.54688C37.6823 14.4688 39.2773 20.6211 39.2773 28.0039C39.2773 37.3919 36.9076 45.7773 32.168 53.1602C27.3372 60.6341 20.0911 66.6497 10.4297 71.207L7.83203 66.1484ZM55.4102 66.1484C61.2435 63.6875 66.2565 59.8138 70.4492 54.5273C74.6419 49.332 76.7383 44.0456 76.7383 38.668C76.7383 36.3893 76.4648 34.4297 75.918 32.7891C72.819 35.25 69.3555 36.4805 65.5273 36.4805C60.5143 36.4805 56.276 34.8398 52.8125 31.5586C49.349 28.3685 47.6172 24.0391 47.6172 18.5703C47.6172 15.1979 48.4375 12.1445 50.0781 9.41016C51.7188 6.67578 53.9062 4.53385 56.6406 2.98438C59.375 1.4349 62.3372 0.660156 65.5273 0.660156C72.7279 0.660156 78.2422 3.6224 82.0703 9.54688C85.2604 14.4688 86.8555 20.6211 86.8555 28.0039C86.8555 37.3919 84.4857 45.7773 79.7461 53.1602C74.9154 60.6341 67.6693 66.6497 58.0078 71.207L55.4102 66.1484Z" fill="#D6D6D6"/>
</svg>
