<svg width="57" height="46" viewBox="0 0 57 46" fill="none" xmlns="http://www.w3.org/2000/svg">
<path d="M11.9372 0.600005C16.6172 0.600005 20.1572 2.52001 22.5572 6.36001C24.5972 9.60001 25.6172 13.56 25.6172 18.24C25.6172 24.24 24.1172 29.64 21.1172 34.44C17.9972 39.24 13.3172 43.08 7.07719 45.96L5.45719 42.72C9.17718 41.16 12.4172 38.7 15.1772 35.34C17.8172 31.98 19.1372 28.56 19.1372 25.08C19.1372 23.64 18.9572 22.38 18.5972 21.3C16.6772 22.86 14.4572 23.64 11.9372 23.64C8.69718 23.64 5.99719 22.56 3.83718 20.4C1.55719 18.36 0.417186 15.6 0.417186 12.12C0.417186 8.88001 1.55719 6.12001 3.83718 3.84001C5.99719 1.68001 8.69718 0.600005 11.9372 0.600005ZM42.5372 0.600005C47.2172 0.600005 50.7572 2.52001 53.1572 6.36001C55.1972 9.60001 56.2172 13.56 56.2172 18.24C56.2172 24.24 54.7172 29.64 51.7172 34.44C48.5972 39.24 43.9172 43.08 37.6772 45.96L36.0572 42.72C39.7772 41.16 43.0172 38.7 45.7772 35.34C48.4172 31.98 49.7372 28.56 49.7372 25.08C49.7372 23.64 49.5572 22.38 49.1972 21.3C47.2772 22.86 45.0572 23.64 42.5372 23.64C39.2972 23.64 36.5972 22.56 34.4372 20.4C32.1572 18.36 31.0172 15.6 31.0172 12.12C31.0172 8.88001 32.1572 6.12001 34.4372 3.84001C36.5972 1.68001 39.2972 0.600005 42.5372 0.600005Z" fill="#765CC1"/>
</svg>
