<svg width="57" height="46" viewBox="0 0 57 46" fill="none" xmlns="http://www.w3.org/2000/svg">
<path d="M45.0628 45.4C40.3828 45.4 36.8428 43.48 34.4428 39.64C32.4028 36.4 31.3828 32.44 31.3828 27.76C31.3828 21.76 32.8828 16.36 35.8828 11.56C39.0028 6.76 43.6828 2.91999 49.9228 0.0399888L51.5428 3.27999C47.8228 4.83999 44.5828 7.29999 41.8228 10.66C39.1828 14.02 37.8628 17.44 37.8628 20.92C37.8628 22.36 38.0428 23.62 38.4028 24.7C40.3228 23.14 42.5428 22.36 45.0628 22.36C48.3028 22.36 51.0028 23.44 53.1628 25.6C55.4428 27.64 56.5828 30.4 56.5828 33.88C56.5828 37.12 55.4428 39.88 53.1628 42.16C51.0028 44.32 48.3028 45.4 45.0628 45.4ZM14.4628 45.4C9.78281 45.4 6.24281 43.48 3.84281 39.64C1.80281 36.4 0.782813 32.44 0.782813 27.76C0.782813 21.76 2.28281 16.36 5.28281 11.56C8.40281 6.76 13.0828 2.91999 19.3228 0.0399888L20.9428 3.27999C17.2228 4.83999 13.9828 7.29999 11.2228 10.66C8.58281 14.02 7.26281 17.44 7.26281 20.92C7.26281 22.36 7.44281 23.62 7.80281 24.7C9.72281 23.14 11.9428 22.36 14.4628 22.36C17.7028 22.36 20.4028 23.44 22.5628 25.6C24.8428 27.64 25.9828 30.4 25.9828 33.88C25.9828 37.12 24.8428 39.88 22.5628 42.16C20.4028 44.32 17.7028 45.4 14.4628 45.4Z" fill="#765CC1"/>
</svg>
