<svg width="87" height="72" viewBox="0 0 87 72" fill="none" xmlns="http://www.w3.org/2000/svg">
<path d="M79.1992 5.85156C73.3659 8.3125 68.3529 12.1862 64.1602 17.4727C59.9674 22.668 57.8711 27.9544 57.8711 33.332C57.8711 35.6107 58.1445 37.5703 58.6914 39.2109C61.8815 36.75 65.3451 35.5195 69.082 35.5195C74.1862 35.5195 78.4245 37.1602 81.7969 40.4414C85.2604 43.6315 86.9922 47.9609 86.9922 53.4297C86.9922 58.5339 85.2604 62.8177 81.7969 66.2812C78.3333 69.6536 74.0951 71.3398 69.082 71.3398C61.8815 71.3398 56.3672 68.3776 52.5391 62.4531C49.349 57.5312 47.7539 51.3789 47.7539 43.9961C47.7539 34.6081 50.1237 26.2227 54.8633 18.8398C59.694 11.3659 66.9401 5.35026 76.6016 0.792969L79.1992 5.85156ZM31.6211 5.85156C25.7878 8.3125 20.7747 12.1862 16.582 17.4727C12.3893 22.668 10.293 27.9544 10.293 33.332C10.293 35.6107 10.5664 37.5703 11.1133 39.2109C14.2122 36.75 17.6758 35.5195 21.5039 35.5195C26.5169 35.5195 30.7552 37.1602 34.2188 40.4414C37.6823 43.6315 39.4141 47.9609 39.4141 53.4297C39.4141 56.8021 38.5938 59.8555 36.9531 62.5898C35.3125 65.3242 33.125 67.4661 30.3906 69.0156C27.6562 70.5651 24.694 71.3398 21.5039 71.3398C14.3034 71.3398 8.78906 68.3776 4.96094 62.4531C1.77083 57.5312 0.175781 51.3789 0.175781 43.9961C0.175781 34.6081 2.54557 26.2227 7.28516 18.8398C12.1159 11.3659 19.362 5.35026 29.0234 0.792969L31.6211 5.85156Z" fill="#D6D6D6"/>
</svg>
